<svg width="35" height="35" viewBox="0 0 35 35" fill="none" xmlns="http://www.w3.org/2000/svg">
<rect x="1" y="1" width="33" height="33" rx="16.5" stroke="white" stroke-width="2"/>
<path d="M9.528 10.352V9.68H16.416H23.328V9.776C23.344 9.824 23.456 10.792 23.664 12.68C23.872 14.568 23.984 15.536 24 15.584V15.68H23.4H22.8V15.584C22.784 15.536 22.76 15.36 22.728 15.056C22.568 13.776 22.304 12.872 21.936 12.344C21.76 12.056 21.504 11.808 21.168 11.6C20.768 11.36 20.328 11.208 19.848 11.144C19.384 11.064 18.456 11.024 17.064 11.024C15.624 11.024 14.864 11.072 14.784 11.168C14.752 11.2 14.736 12.16 14.736 14.048V16.856H15.912C16.792 16.824 17.24 16.808 17.256 16.808C17.928 16.696 18.368 16.432 18.576 16.016C18.752 15.712 18.848 15.224 18.864 14.552V14.048H19.464H20.064V17.528V21.008H19.464H18.864V20.504C18.848 19.832 18.752 19.344 18.576 19.04C18.368 18.624 17.928 18.36 17.256 18.248C17.24 18.248 16.792 18.232 15.912 18.2H14.736V21.32C14.736 23.416 14.752 24.48 14.784 24.512C14.848 24.592 15.12 24.632 15.6 24.632C15.808 24.648 16.304 24.648 17.088 24.632C18.464 24.632 19.264 24.624 19.488 24.608C20.592 24.464 21.416 24.136 21.96 23.624C22.584 23.048 23.048 21.784 23.352 19.832L23.448 19.28V19.208H24.048H24.648V19.28C24.632 19.296 24.464 20.4 24.144 22.592C23.824 24.784 23.656 25.896 23.64 25.928V26H16.584H9.528V25.328V24.656H10.2C11.32 24.656 11.912 24.6 11.976 24.488V11.192C11.912 11.08 11.32 11.024 10.2 11.024H9.528V10.352Z" fill="white"/>
</svg>
